<mxfile host="app.diagrams.net" modified="2021-01-19T03:32:26.677Z" agent="5.0 (X11; Linux x86_64) AppleWebKit/537.36 (KHTML, like Gecko) Chrome/87.0.4280.141 Safari/537.36" etag="JD84eH71Ojp5jsnpq1pA" version="14.2.4" type="github">
  <diagram id="kgpKYQtTHZ0yAKxKKP6v" name="Page-1">
    <mxGraphModel dx="1382" dy="761" grid="1" gridSize="14" guides="1" tooltips="1" connect="1" arrows="1" fold="1" page="1" pageScale="1" pageWidth="850" pageHeight="1100" math="0" shadow="0">
      <root>
        <mxCell id="0" />
        <mxCell id="1" parent="0" />
        <mxCell id="3nuBFxr9cyL0pnOWT2aG-1" value="PipeManager" style="shape=umlLifeline;perimeter=lifelinePerimeter;container=1;collapsible=0;recursiveResize=0;rounded=0;shadow=0;strokeWidth=1;" parent="1" vertex="1">
          <mxGeometry x="120" y="80" width="100" height="392" as="geometry" />
        </mxCell>
        <mxCell id="3nuBFxr9cyL0pnOWT2aG-2" value="" style="points=[];perimeter=orthogonalPerimeter;rounded=0;shadow=0;strokeWidth=1;" parent="3nuBFxr9cyL0pnOWT2aG-1" vertex="1">
          <mxGeometry x="45" y="70" width="10" height="322" as="geometry" />
        </mxCell>
        <mxCell id="3nuBFxr9cyL0pnOWT2aG-3" value="init()" style="verticalAlign=bottom;startArrow=oval;endArrow=block;startSize=8;shadow=0;strokeWidth=1;fontSize=14;" parent="3nuBFxr9cyL0pnOWT2aG-1" edge="1">
          <mxGeometry x="-0.3" relative="1" as="geometry">
            <mxPoint x="-14" y="70" as="sourcePoint" />
            <mxPoint x="46" y="70" as="targetPoint" />
            <mxPoint as="offset" />
          </mxGeometry>
        </mxCell>
        <mxCell id="wxGNkDzkun1_tn9nPBb6-3" value="" style="html=1;points=[];perimeter=orthogonalPerimeter;fontSize=14;" vertex="1" parent="3nuBFxr9cyL0pnOWT2aG-1">
          <mxGeometry x="55" y="155" width="10" height="40" as="geometry" />
        </mxCell>
        <mxCell id="wxGNkDzkun1_tn9nPBb6-4" value="buildSource()" style="edgeStyle=orthogonalEdgeStyle;html=1;align=left;spacingLeft=2;endArrow=block;rounded=0;entryX=1;entryY=0;strokeWidth=1;fontSize=11;" edge="1" target="wxGNkDzkun1_tn9nPBb6-3" parent="3nuBFxr9cyL0pnOWT2aG-1">
          <mxGeometry relative="1" as="geometry">
            <mxPoint x="60" y="135" as="sourcePoint" />
            <Array as="points">
              <mxPoint x="85" y="135" />
            </Array>
          </mxGeometry>
        </mxCell>
        <mxCell id="3nuBFxr9cyL0pnOWT2aG-5" value="ScheduledExecutorService" style="shape=umlLifeline;perimeter=lifelinePerimeter;container=1;collapsible=0;recursiveResize=0;rounded=0;shadow=0;strokeWidth=1;" parent="1" vertex="1">
          <mxGeometry x="322" y="82" width="148" height="296" as="geometry" />
        </mxCell>
        <mxCell id="3nuBFxr9cyL0pnOWT2aG-6" value="" style="points=[];perimeter=orthogonalPerimeter;rounded=0;shadow=0;strokeWidth=1;" parent="3nuBFxr9cyL0pnOWT2aG-5" vertex="1">
          <mxGeometry x="69" y="78" width="10" height="160" as="geometry" />
        </mxCell>
        <mxCell id="3nuBFxr9cyL0pnOWT2aG-8" value="scheduleAtFixedRate()" style="verticalAlign=bottom;endArrow=block;entryX=0;entryY=0;shadow=0;strokeWidth=1;" parent="1" source="3nuBFxr9cyL0pnOWT2aG-2" target="3nuBFxr9cyL0pnOWT2aG-6" edge="1">
          <mxGeometry x="-0.0278" y="6" relative="1" as="geometry">
            <mxPoint x="275" y="160" as="sourcePoint" />
            <mxPoint as="offset" />
          </mxGeometry>
        </mxCell>
        <mxCell id="3nuBFxr9cyL0pnOWT2aG-9" value="buildSourceFromDb()" style="verticalAlign=bottom;endArrow=block;shadow=0;strokeWidth=1;" parent="1" edge="1">
          <mxGeometry relative="1" as="geometry">
            <mxPoint x="397" y="200" as="sourcePoint" />
            <mxPoint x="174" y="200" as="targetPoint" />
          </mxGeometry>
        </mxCell>
        <mxCell id="wxGNkDzkun1_tn9nPBb6-1" value="KafkaSource" style="shape=umlLifeline;perimeter=lifelinePerimeter;whiteSpace=wrap;html=1;container=1;collapsible=0;recursiveResize=0;outlineConnect=0;fontSize=14;" vertex="1" parent="1">
          <mxGeometry x="515" y="78" width="100" height="350" as="geometry" />
        </mxCell>
        <mxCell id="wxGNkDzkun1_tn9nPBb6-2" value="" style="html=1;points=[];perimeter=orthogonalPerimeter;fontSize=14;" vertex="1" parent="wxGNkDzkun1_tn9nPBb6-1">
          <mxGeometry x="45" y="123" width="10" height="227" as="geometry" />
        </mxCell>
        <mxCell id="wxGNkDzkun1_tn9nPBb6-6" style="edgeStyle=orthogonalEdgeStyle;rounded=0;orthogonalLoop=1;jettySize=auto;html=1;strokeWidth=1;fontSize=11;" edge="1" parent="1" source="wxGNkDzkun1_tn9nPBb6-3">
          <mxGeometry relative="1" as="geometry">
            <mxPoint x="562" y="258" as="targetPoint" />
            <Array as="points">
              <mxPoint x="374" y="255" />
              <mxPoint x="374" y="258" />
            </Array>
          </mxGeometry>
        </mxCell>
        <mxCell id="wxGNkDzkun1_tn9nPBb6-7" value="start()" style="edgeLabel;html=1;align=center;verticalAlign=middle;resizable=0;points=[];fontSize=11;" vertex="1" connectable="0" parent="wxGNkDzkun1_tn9nPBb6-6">
          <mxGeometry x="-0.389" y="1" relative="1" as="geometry">
            <mxPoint y="-9" as="offset" />
          </mxGeometry>
        </mxCell>
        <mxCell id="wxGNkDzkun1_tn9nPBb6-8" value="KafkaConsumerRunnable" style="shape=umlLifeline;perimeter=lifelinePerimeter;whiteSpace=wrap;html=1;container=1;collapsible=0;recursiveResize=0;outlineConnect=0;fontSize=11;" vertex="1" parent="1">
          <mxGeometry x="658" y="84" width="140" height="294" as="geometry" />
        </mxCell>
        <mxCell id="wxGNkDzkun1_tn9nPBb6-9" value="" style="html=1;points=[];perimeter=orthogonalPerimeter;fontSize=11;" vertex="1" parent="wxGNkDzkun1_tn9nPBb6-8">
          <mxGeometry x="65" y="112" width="10" height="168" as="geometry" />
        </mxCell>
        <mxCell id="wxGNkDzkun1_tn9nPBb6-10" style="edgeStyle=orthogonalEdgeStyle;rounded=0;orthogonalLoop=1;jettySize=auto;html=1;strokeWidth=1;fontSize=11;" edge="1" parent="1" source="wxGNkDzkun1_tn9nPBb6-2">
          <mxGeometry relative="1" as="geometry">
            <mxPoint x="722" y="301" as="targetPoint" />
            <Array as="points">
              <mxPoint x="722" y="301" />
            </Array>
          </mxGeometry>
        </mxCell>
        <mxCell id="wxGNkDzkun1_tn9nPBb6-11" value="run()" style="text;html=1;align=center;verticalAlign=middle;resizable=0;points=[];autosize=1;fontSize=11;" vertex="1" parent="1">
          <mxGeometry x="616" y="280" width="42" height="14" as="geometry" />
        </mxCell>
        <mxCell id="wxGNkDzkun1_tn9nPBb6-12" value="apache.KafkaConsumer" style="shape=umlLifeline;perimeter=lifelinePerimeter;whiteSpace=wrap;html=1;container=1;collapsible=0;recursiveResize=0;outlineConnect=0;fontSize=11;" vertex="1" parent="1">
          <mxGeometry x="850" y="84" width="130" height="300" as="geometry" />
        </mxCell>
        <mxCell id="wxGNkDzkun1_tn9nPBb6-14" value="" style="html=1;points=[];perimeter=orthogonalPerimeter;fontSize=11;" vertex="1" parent="wxGNkDzkun1_tn9nPBb6-12">
          <mxGeometry x="60" y="106" width="10" height="174" as="geometry" />
        </mxCell>
        <mxCell id="wxGNkDzkun1_tn9nPBb6-15" style="edgeStyle=orthogonalEdgeStyle;rounded=0;orthogonalLoop=1;jettySize=auto;html=1;entryX=-0.4;entryY=0.448;entryDx=0;entryDy=0;entryPerimeter=0;strokeWidth=1;fontSize=11;" edge="1" parent="1">
          <mxGeometry relative="1" as="geometry">
            <mxPoint x="728" y="322" as="sourcePoint" />
            <mxPoint x="910.5" y="322.002" as="targetPoint" />
          </mxGeometry>
        </mxCell>
        <mxCell id="wxGNkDzkun1_tn9nPBb6-16" value="poll()" style="text;html=1;align=center;verticalAlign=middle;resizable=0;points=[];autosize=1;fontSize=11;" vertex="1" parent="1">
          <mxGeometry x="783" y="308" width="42" height="14" as="geometry" />
        </mxCell>
        <mxCell id="wxGNkDzkun1_tn9nPBb6-17" value="ThreadPoolExecutor" style="shape=umlLifeline;perimeter=lifelinePerimeter;whiteSpace=wrap;html=1;container=1;collapsible=0;recursiveResize=0;outlineConnect=0;fontSize=11;" vertex="1" parent="1">
          <mxGeometry x="1022" y="81" width="100" height="322" as="geometry" />
        </mxCell>
        <mxCell id="wxGNkDzkun1_tn9nPBb6-18" value="" style="html=1;points=[];perimeter=orthogonalPerimeter;fontSize=11;" vertex="1" parent="wxGNkDzkun1_tn9nPBb6-17">
          <mxGeometry x="45" y="134" width="10" height="188" as="geometry" />
        </mxCell>
        <mxCell id="wxGNkDzkun1_tn9nPBb6-22" style="edgeStyle=orthogonalEdgeStyle;rounded=0;orthogonalLoop=1;jettySize=auto;html=1;strokeWidth=1;fontSize=11;" edge="1" parent="1" source="wxGNkDzkun1_tn9nPBb6-8">
          <mxGeometry relative="1" as="geometry">
            <mxPoint x="1069" y="350" as="targetPoint" />
            <Array as="points">
              <mxPoint x="1069" y="350" />
            </Array>
          </mxGeometry>
        </mxCell>
        <mxCell id="wxGNkDzkun1_tn9nPBb6-23" value="execute()" style="text;html=1;align=center;verticalAlign=middle;resizable=0;points=[];autosize=1;fontSize=11;" vertex="1" parent="1">
          <mxGeometry x="952" y="336" width="70" height="14" as="geometry" />
        </mxCell>
        <mxCell id="wxGNkDzkun1_tn9nPBb6-28" style="edgeStyle=orthogonalEdgeStyle;rounded=0;orthogonalLoop=1;jettySize=auto;html=1;entryX=1.1;entryY=0.859;entryDx=0;entryDy=0;entryPerimeter=0;strokeWidth=1;fontSize=11;" edge="1" parent="1" source="wxGNkDzkun1_tn9nPBb6-18" target="wxGNkDzkun1_tn9nPBb6-2">
          <mxGeometry relative="1" as="geometry">
            <Array as="points">
              <mxPoint x="1072" y="372" />
            </Array>
          </mxGeometry>
        </mxCell>
        <mxCell id="wxGNkDzkun1_tn9nPBb6-31" value="consumerRecord()" style="text;html=1;align=center;verticalAlign=middle;resizable=0;points=[];autosize=1;fontSize=11;" vertex="1" parent="1">
          <mxGeometry x="756" y="336" width="112" height="14" as="geometry" />
        </mxCell>
        <mxCell id="wxGNkDzkun1_tn9nPBb6-32" style="edgeStyle=orthogonalEdgeStyle;rounded=0;orthogonalLoop=1;jettySize=auto;html=1;entryX=1.1;entryY=0.798;entryDx=0;entryDy=0;entryPerimeter=0;strokeWidth=1;fontSize=11;" edge="1" parent="1" source="wxGNkDzkun1_tn9nPBb6-2" target="3nuBFxr9cyL0pnOWT2aG-2">
          <mxGeometry relative="1" as="geometry">
            <Array as="points">
              <mxPoint x="565" y="407" />
            </Array>
          </mxGeometry>
        </mxCell>
        <mxCell id="wxGNkDzkun1_tn9nPBb6-33" value="pipeline(message)" style="text;html=1;align=center;verticalAlign=middle;resizable=0;points=[];autosize=1;fontSize=11;" vertex="1" parent="1">
          <mxGeometry x="266" y="378" width="112" height="14" as="geometry" />
        </mxCell>
      </root>
    </mxGraphModel>
  </diagram>
</mxfile>
